<svg width="161" height="23" viewBox="0 0 161 23" fill="none" xmlns="http://www.w3.org/2000/svg">
<path d="M1.4375 5.57812H3.61719V11.0938L3.58594 12.5703L3.50781 14.25H3.55469L8.82812 5.57812H11.7266V17H9.57031V11.5156C9.57031 10.7812 9.61719 9.69271 9.71094 8.25H9.64844L4.35156 17H1.4375V5.57812ZM17.9688 17.1562C15.25 17.1562 13.8906 15.6641 13.8906 12.6797C13.8906 11.1953 14.2604 10.0625 15 9.28125C15.7396 8.49479 16.7995 8.10156 18.1797 8.10156C19.1901 8.10156 20.0964 8.29948 20.8984 8.69531L20.1953 10.5391C19.8203 10.388 19.4714 10.2656 19.1484 10.1719C18.8255 10.0729 18.5026 10.0234 18.1797 10.0234C16.9401 10.0234 16.3203 10.9036 16.3203 12.6641C16.3203 14.3724 16.9401 15.2266 18.1797 15.2266C18.638 15.2266 19.0625 15.1667 19.4531 15.0469C19.8438 14.9219 20.2344 14.7292 20.625 14.4688V16.5078C20.2396 16.7526 19.849 16.9219 19.4531 17.0156C19.0625 17.1094 18.5677 17.1562 17.9688 17.1562ZM26.2031 17.1562C23.4844 17.1562 22.125 15.6641 22.125 12.6797C22.125 11.1953 22.4948 10.0625 23.2344 9.28125C23.974 8.49479 25.0339 8.10156 26.4141 8.10156C27.4245 8.10156 28.3307 8.29948 29.1328 8.69531L28.4297 10.5391C28.0547 10.388 27.7057 10.2656 27.3828 10.1719C27.0599 10.0729 26.737 10.0234 26.4141 10.0234C25.1745 10.0234 24.5547 10.9036 24.5547 12.6641C24.5547 14.3724 25.1745 15.2266 26.4141 15.2266C26.8724 15.2266 27.2969 15.1667 27.6875 15.0469C28.0781 14.9219 28.4688 14.7292 28.8594 14.4688V16.5078C28.474 16.7526 28.0833 16.9219 27.6875 17.0156C27.2969 17.1094 26.8021 17.1562 26.2031 17.1562ZM38.7109 17H36.3281V10.0547H34.1328C33.9661 12.0078 33.763 13.4661 33.5234 14.4297C33.2839 15.388 32.9635 16.0833 32.5625 16.5156C32.1667 16.9427 31.6458 17.1562 31 17.1562C30.4479 17.1562 29.9948 17.0729 29.6406 16.9062V15C29.8958 15.1042 30.151 15.1562 30.4062 15.1562C30.7031 15.1562 30.9505 14.9427 31.1484 14.5156C31.3516 14.0885 31.5312 13.3776 31.6875 12.3828C31.849 11.3828 31.987 10.0104 32.1016 8.26562H38.7109V17ZM44.8359 9.79688C44.3307 9.79688 43.9349 9.95833 43.6484 10.2812C43.362 10.599 43.1979 11.0521 43.1562 11.6406H46.5C46.4896 11.0521 46.3359 10.599 46.0391 10.2812C45.7422 9.95833 45.3411 9.79688 44.8359 9.79688ZM45.1719 17.1562C43.7656 17.1562 42.6667 16.7682 41.875 15.9922C41.0833 15.2161 40.6875 14.1172 40.6875 12.6953C40.6875 11.2318 41.0521 10.1016 41.7812 9.30469C42.5156 8.5026 43.5286 8.10156 44.8203 8.10156C46.0547 8.10156 47.0156 8.45312 47.7031 9.15625C48.3906 9.85938 48.7344 10.8307 48.7344 12.0703V13.2266H43.1016C43.1276 13.9036 43.3281 14.4323 43.7031 14.8125C44.0781 15.1927 44.6042 15.3828 45.2812 15.3828C45.8073 15.3828 46.3047 15.3281 46.7734 15.2188C47.2422 15.1094 47.7318 14.9349 48.2422 14.6953V16.5391C47.8255 16.7474 47.3802 16.901 46.9062 17C46.4323 17.1042 45.8542 17.1562 45.1719 17.1562ZM56.1406 15.2578V10.0547H54.3516C54.2214 11.0234 54.0417 11.9427 53.8125 12.8125C53.5885 13.6823 53.276 14.4974 52.875 15.2578H56.1406ZM59.8047 20.1328H57.6641V17H51.7891V20.1328H49.6484V15.2578H50.3828C50.8828 14.4818 51.3021 13.5026 51.6406 12.3203C51.9792 11.138 52.2161 9.78646 52.3516 8.26562H58.5234V15.2578H59.8047V20.1328ZM63.1953 12.6172C63.1953 13.4818 63.3359 14.1354 63.6172 14.5781C63.9036 15.0208 64.3672 15.2422 65.0078 15.2422C65.6432 15.2422 66.099 15.0234 66.375 14.5859C66.6562 14.1432 66.7969 13.487 66.7969 12.6172C66.7969 11.7526 66.6562 11.1042 66.375 10.6719C66.0938 10.2396 65.6328 10.0234 64.9922 10.0234C64.3568 10.0234 63.8984 10.2396 63.6172 10.6719C63.3359 11.099 63.1953 11.7474 63.1953 12.6172ZM69.2344 12.6172C69.2344 14.0391 68.8594 15.151 68.1094 15.9531C67.3594 16.7552 66.3151 17.1562 64.9766 17.1562C64.138 17.1562 63.3984 16.974 62.7578 16.6094C62.1172 16.2396 61.625 15.7109 61.2812 15.0234C60.9375 14.3359 60.7656 13.5339 60.7656 12.6172C60.7656 11.1901 61.138 10.0807 61.8828 9.28906C62.6276 8.4974 63.6745 8.10156 65.0234 8.10156C65.862 8.10156 66.6016 8.28385 67.2422 8.64844C67.8828 9.01302 68.375 9.53646 68.7188 10.2188C69.0625 10.901 69.2344 11.7005 69.2344 12.6172ZM79.2656 10.5547C79.2656 11.0234 79.1172 11.4245 78.8203 11.7578C78.5286 12.0859 78.0964 12.2969 77.5234 12.3906V12.4531C78.1432 12.526 78.6328 12.7396 78.9922 13.0938C79.3568 13.4427 79.5391 13.875 79.5391 14.3906C79.5391 15.2396 79.2057 15.888 78.5391 16.3359C77.8724 16.7786 76.9193 17 75.6797 17H71.2031V8.26562H75.6797C76.8776 8.26562 77.7734 8.46094 78.3672 8.85156C78.9661 9.23698 79.2656 9.80469 79.2656 10.5547ZM77.0703 14.2656C77.0703 13.9219 76.9375 13.6745 76.6719 13.5234C76.4062 13.3672 76.0078 13.2891 75.4766 13.2891H73.5859V15.3516H75.5234C76.0286 15.3516 76.4115 15.2578 76.6719 15.0703C76.9375 14.8776 77.0703 14.6094 77.0703 14.2656ZM76.8516 10.7422C76.8516 10.2109 76.4297 9.94531 75.5859 9.94531H73.5859V11.6719H75.3125C75.8177 11.6719 76.2005 11.599 76.4609 11.4531C76.7214 11.3073 76.8516 11.0703 76.8516 10.7422ZM86.9844 17L86.5234 15.8125H86.4609C86.0599 16.3177 85.6458 16.6693 85.2188 16.8672C84.7969 17.0599 84.2448 17.1562 83.5625 17.1562C82.724 17.1562 82.0625 16.9167 81.5781 16.4375C81.099 15.9583 80.8594 15.276 80.8594 14.3906C80.8594 13.4635 81.1823 12.7812 81.8281 12.3438C82.4792 11.901 83.4583 11.6562 84.7656 11.6094L86.2812 11.5625V11.1797C86.2812 10.2943 85.8281 9.85156 84.9219 9.85156C84.224 9.85156 83.4036 10.0625 82.4609 10.4844L81.6719 8.875C82.6771 8.34896 83.7917 8.08594 85.0156 8.08594C86.1875 8.08594 87.0859 8.34115 87.7109 8.85156C88.3359 9.36198 88.6484 10.138 88.6484 11.1797V17H86.9844ZM86.2812 12.9531L85.3594 12.9844C84.6667 13.0052 84.151 13.1302 83.8125 13.3594C83.474 13.5885 83.3047 13.9375 83.3047 14.4062C83.3047 15.0781 83.6901 15.4141 84.4609 15.4141C85.013 15.4141 85.4531 15.2552 85.7812 14.9375C86.1146 14.6198 86.2812 14.1979 86.2812 13.6719V12.9531ZM98.3359 8.26562V10.0547H95.4766V17H93.0938V10.0547H90.2266V8.26562H98.3359ZM102.352 11.6406H104.031C105.375 11.6406 106.37 11.8542 107.016 12.2812C107.661 12.7083 107.984 13.3542 107.984 14.2188C107.984 16.0729 106.698 17 104.125 17H99.9688V8.26562H102.352V11.6406ZM105.602 14.25C105.602 13.9115 105.466 13.6667 105.195 13.5156C104.924 13.3646 104.521 13.2891 103.984 13.2891H102.352V15.3516H104.016C105.073 15.3516 105.602 14.9844 105.602 14.25Z" fill="#BAE249"/>
<path d="M160.707 12.2071C161.098 11.8166 161.098 11.1834 160.707 10.7929L154.343 4.42893C153.953 4.03841 153.319 4.03841 152.929 4.42893C152.538 4.81946 152.538 5.45262 152.929 5.84315L158.586 11.5L152.929 17.1569C152.538 17.5474 152.538 18.1805 152.929 18.5711C153.319 18.9616 153.953 18.9616 154.343 18.5711L160.707 12.2071ZM117 12.5L160 12.5V10.5L117 10.5V12.5Z" fill="#BAE249"/>
</svg>
